<svg fill="none" height="38" viewBox="0 0 248 38" width="248" xmlns="http://www.w3.org/2000/svg" xmlns:xlink="http://www.w3.org/1999/xlink"><clipPath id="a"><path d="m0 .5h248v37h-248z"/></clipPath><g clip-path="url(#a)" fill="#fff"><path d="m17.4117 25.9377-9.54116-4.3822c-.04357-.0203-.0915-.0292-.13941-.0261-.04791.0032-.09426.0184-.13481.0443s-.07401.0616-.09731.1039-.0357.0897-.03606.1381v2.2547c.00001.0556.01565.1101.04511.1572.02946.047.07154.0847.12137.1087l8.82927 4.0469c.5999.2766 1.2519.4197 1.9117.4197.6597 0 1.3117-.1431 1.9116-.4197l8.8293-4.0469c.0498-.024.0919-.0617.1214-.1087.0294-.0471.0451-.1016.0451-.1572v-2.2547c-.0004-.0484-.0128-.0958-.0361-.1381s-.0567-.078-.0973-.1039-.0869-.0411-.1348-.0443c-.0479-.0031-.0959.0058-.1394.0261l-9.5411 4.3822c-.3013.1373-.6281.2084-.9587.2084-.3307 0-.6575-.0711-.9587-.2084z"/><path d="m31.9817 16.4969-2.8073-1.295-10.6835 4.9546c-.0371.0197-.0785.03-.1205.03s-.0834-.0103-.1206-.03l-6.5329-3.041c-.0259-.0111-.048-.0296-.0635-.0533-.0155-.0236-.0238-.0513-.0238-.0796 0-.0284.0083-.0561.0238-.0797.0155-.0237.0376-.0422.0635-.0533l1.4868-.6822c.0379-.0172.079-.0262.1206-.0262.0415 0 .0826.009.1205.0262l4.805 2.2547c.0372.0197.0786.03.1206.03s.0834-.0103.1205-.03l8.8063-4.0469-8.4503-3.9428c-.1496-.0687-.3121-.1043-.4765-.1043s-.3269.0356-.4765.1043l-13.13482 6.0645c-.04982.0225-.09208.059-.12164.1052s-.04514.1-.04485.155v1.3644c-.00029.0549.01529.1088.04485.155.02956.0461.07182.0827.12164.1051l13.13482 6.0645c.1496.0688.3121.1043.4765.1043s.3269-.0355.4765-.1043l13.1348-6.0645c.0498-.0224.092-.059.1216-.1051.0296-.0462.0451-.1001.0448-.155v-1.3644c.0003-.055-.0152-.1088-.0448-.155s-.0718-.0827-.1216-.1052z"/><path d="m55.8689 28.25h-5.006l-3.8577-7.0763h-1.3606v7.0763h-4.3113v-18.5h6.6019c2.0494 0 3.6511.4278 4.8452 1.3123.6493.492 1.1722 1.1335 1.5247 1.8708.3526.7373.5247 1.5489.5017 2.3669 0 3.515-2.2389 4.8794-3.5937 5.3072zm-6.3148-14.667c-.5282-.3989-1.2228-.4799-2.2102-.4799h-1.7223v4.7407h1.7223c.7729.0793 1.5502-.1017 2.2102-.5146.3083-.1991.5578-.478.7225-.8075.1646-.3296.2382-.6976.2132-1.0656.0178-.3695-.0614-.7373-.2298-1.0661-.1683-.3289-.4197-.6072-.7289-.807z"/><path d="m69.6926 28.25h-12.1417v-18.5h11.912v3.4688h-7.6294v3.7809h7.1931v3.4687h-7.1931v4.2897h7.8591z"/><path d="m89.1077 28.25h-4.6787l-1.3031-3.7231h-6.5445l-1.2974 3.7231h-4.4663l6.8889-18.5h4.4663zm-6.9692-7.0936-2.2963-6.6426-2.2963 6.6426z"/><path d="m104.12 26.0531c-1.522 1.2835-3.887 2.1969-7.1015 2.1969h-6.2115v-18.5h6.2115c3.1975 0 5.5625.9134 7.0845 2.2258 1.521 1.3123 2.979 3.434 2.979 7.0242s-1.418 5.735-2.962 7.0531zm-3.008-11.3948c-1.067-.9128-2.4372-1.384-3.8352-1.3181h-2.1872v11.2387h2.1872c1.4026.0702 2.7772-.4107 3.8352-1.3412.769-.7227 1.647-1.9599 1.647-4.2377.042-.7994-.083-1.5987-.367-2.3465-.284-.7477-.72-1.4274-1.28-1.9952z"/><path d="m123.426 9.75-6.401 11.0191v7.4809h-4.317v-7.4809l-6.389-11.0191h4.793l3.755 7.3711 3.754-7.3711z"/><path d="m143.576 28.25h-10.965v-18.5h10.752v2.1738h-8.169v5.521h7.716v2.1738h-7.716v6.4345h8.382z"/><path d="m158.054 28.25h-2.451v-2.035h-.029c-.486.7328-1.148 1.3293-1.925 1.7338s-1.644.6036-2.518.5787c-3.755 0-6.149-2.8906-6.149-6.6773 0-3.7868 2.394-6.5964 6.097-6.5964.863-.0349 1.72.151 2.492.5402s1.434.9691 1.923 1.6855h.051v-7.7295h2.532zm-6.47-10.8861c-2.526 0-4.018 1.9309-4.018 4.4805 0 2.5495 1.492 4.5036 4.018 4.5036s4.019-1.9599 4.019-4.5036c0-2.5438-1.487-4.4805-4.019-4.4805z"/><path d="m171.384 28.2499h-2.474v-1.8211c-.409.6697-.986 1.2184-1.674 1.5901-.688.3718-1.461.5532-2.241.5258-1.809 0-2.871-.6186-3.514-1.4742s-.93-2.1159-.93-3.9428v-7.6428h2.486v7.5618c0 1.7344.373 3.3763 2.635 3.3763s3.14-1.9309 3.14-4.0469v-6.8912h2.555z"/><path d="m184.852 26.6139c-.373.3758-1.676 1.9309-5.058 1.9309-3.381 0-6.424-2.5726-6.424-6.6542-.027-.8677.121-1.732.435-2.5406.313-.8086.787-1.5447 1.391-2.164.604-.6192 1.326-1.1087 2.124-1.4388.797-.3301 1.652-.4941 2.514-.4819 3.382 0 4.765 1.665 4.897 1.8269l-.89 1.9078c-.485-.5128-1.072-.9164-1.723-1.1844s-1.351-.3944-2.054-.3708c-2.239 0-4.099 1.7344-4.099 4.3995 0 2.6652 1.676 4.5325 4.122 4.5325.715.0077 1.423-.1314 2.082-.4088.66-.2773 1.256-.687 1.753-1.2041z"/><path d="m196.959 28.2502h-2.474v-1.6072c-.489.596-1.103 1.0757-1.798 1.4045-.695.3289-1.453.4988-2.221.4975-2.342 0-4.363-1.4742-4.363-3.9428s2.021-3.752 4.949-3.885l3.381-.133v-.5145c0-1.9252-1.303-2.8906-3.14-2.8906-1.342.0267-2.654.4053-3.806 1.0984l-.769-1.7344c1.443-.831 3.073-1.2749 4.736-1.2892 2.101 0 3.324.5781 4.179 1.4511s1.355 1.9541 1.355 4.1278zm-2.526-6.1108-2.956.185c-2.05.1098-2.871.9943-2.871 2.1968s.93 2.2027 2.607 2.2027c.645-.0224 1.276-.2024 1.837-.5247s1.035-.7771 1.383-1.3253z"/><path d="m205.857 28.117c-.733.2833-1.511.4283-2.296.4278-.523.0398-1.047-.0606-1.519-.2911-.472-.2306-.875-.5829-1.168-1.0213-.534-.8036-.637-1.7979-.637-3.8098v-5.8159h-1.866v-2.0755h1.866v-3.7983h2.555v3.7983h3.031v2.0639h-3.031v5.7812c0 1.0696 0 1.798.315 2.3125.126.2198.312.3987.536.5155s.476.1666.727.1436c.453-.0013.899-.1019 1.309-.2948z"/><path d="m209.106 12.9124c-.307-.0147-.604-.1201-.853-.3031s-.438-.4356-.546-.7264c-.107-.2907-.128-.6069-.059-.9092.07-.3023.226-.5774.449-.7913.223-.21383.504-.35694.807-.41156.303-.05463.616-.01835.899.10431.283.12267.524.32635.693.58575.169.2593.259.563.258.8733 0 .2142-.043.4263-.126.6232-.084.197-.207.3747-.361.5224s-.337.2622-.536.3365c-.2.0744-.412.1071-.625.0961zm1.275 15.3377h-2.566v-12.7188h2.554z"/><path d="m219.061 28.5448c-3.783 0-6.711-2.6536-6.711-6.6196 0-3.9659 2.928-6.6542 6.711-6.6542.88-.0327 1.757.1165 2.577.4385.82.3219 1.566.8097 2.191 1.4332.626.6236 1.118 1.3697 1.446 2.1923.328.8225.486 1.7041.462 2.5902 0 3.966-2.927 6.6196-6.676 6.6196zm0-11.181c-2.555 0-4.128 1.983-4.128 4.4805s1.573 4.5036 4.128 4.5036 4.099-1.983 4.099-4.5036-1.567-4.4805-4.099-4.4805z"/><path d="m238.591 28.2499h-2.555v-7.1052c0-2.1448-.373-3.752-2.635-3.752-2.365 0-3.243 2.0118-3.243 4.4515v6.4057h-2.555v-12.7188h2.555l-.029 2.0119h.075c.374-.6973.932-1.2769 1.613-1.6748s1.458-.5985 2.244-.5799c3.594 0 4.524 2.3877 4.524 5.4459z"/></g></svg>